<?xml version="1.0" encoding="iso-8859-1"?>
<!-- Generator: Adobe Illustrator 27.0.0, SVG Export Plug-In . SVG Version: 6.00 Build 0)  -->
<svg version="1.1" baseProfile="basic" id="Layer_1"
	 xmlns="http://www.w3.org/2000/svg" xmlns:xlink="http://www.w3.org/1999/xlink" x="0px" y="0px" viewBox="0 0 32 32"
	 xml:space="preserve">
<path d="M27.816,27.422l-9.069-12.803l8.381-9.224c0.546-0.6,0.482-1.512-0.142-2.038c-0.623-0.526-1.57-0.464-2.116,0.136
	l-7.869,8.66l-3.329-4.699c-0.32-0.452-0.943-0.557-1.395-0.238c-0.45,0.319-0.558,0.943-0.238,1.395L25.066,27h-3.549L5.934,5h3.55
	l0.694,0.981c0.319,0.451,0.944,0.557,1.395,0.238c0.45-0.319,0.557-0.943,0.238-1.395l-0.994-1.403C10.629,3.158,10.324,3,10,3H4
	C3.626,3,3.283,3.209,3.111,3.542C2.94,3.874,2.968,4.273,3.184,4.579l9.068,12.802l-8.381,9.224
	c-0.546,0.6-0.482,1.512,0.142,2.038C4.297,28.882,4.648,29,4.999,29c0.418,0,0.833-0.167,1.13-0.494l7.869-8.66l6.186,8.733
	C20.371,28.843,20.676,29,21,29h6c0.374,0,0.717-0.209,0.889-0.541C28.06,28.127,28.032,27.728,27.816,27.422z"/>
</svg>