<?xml version="1.0" encoding="iso-8859-1"?>
<!-- Generator: Adobe Illustrator 27.0.0, SVG Export Plug-In . SVG Version: 6.00 Build 0)  -->
<svg version="1.1" baseProfile="basic" id="Layer_1"
	 xmlns="http://www.w3.org/2000/svg" xmlns:xlink="http://www.w3.org/1999/xlink" x="0px" y="0px" viewBox="0 0 32 32"
	 xml:space="preserve">
<g>
	<circle cx="16" cy="16" r="4"/>
	<path d="M24.519,3.134c-0.537-0.119-1.073,0.222-1.191,0.762c-0.119,0.537,0.22,1.067,0.757,1.189C24.616,5.321,25,5.885,25,6.5
		C25,7.328,24.328,8,23.5,8H8.749C8.336,8,8,8.336,8,8.749V23.5C8,24.328,7.328,25,6.5,25c-0.686,0-1.259-0.464-1.437-1.093
		C5.028,23.703,5,23.497,5,23.284V8.749C5,6.682,6.682,5,8.749,5h10.703h1.156c0.553,0,1-0.447,1-1s-0.447-1-1-1H8.717
		C5.564,3,3,5.565,3,8.717v14.566C3,26.436,5.564,29,8.717,29h14.566C26.436,29,29,26.436,29,23.284V8.717
		C29,6.054,27.115,3.706,24.519,3.134z M24,10c0.552,0,1,0.448,1,1c0,0.552-0.448,1-1,1s-1-0.448-1-1C23,10.448,23.448,10,24,10z
		 M16,10c3.309,0,6,2.691,6,6s-2.691,6-6,6s-6-2.691-6-6S12.691,10,16,10z"/>
</g>
</svg>